<svg width="60" height="60" viewBox="0 0 60 60" fill="none" xmlns="http://www.w3.org/2000/svg">
<path fill-rule="evenodd" clip-rule="evenodd" d="M39.0815 0C45.105 0 48.116 0 51.3585 1.025C54.8985 2.3135 57.6865 5.1015 58.975 8.6415C60 11.8835 60 14.8955 60 20.9185V39.0815C60 45.105 60 48.116 58.975 51.3585C57.6865 54.8985 54.8985 57.6865 51.3585 58.9745C48.116 60 45.105 60 39.0815 60H20.9185C14.895 60 11.8835 60 8.6415 58.9745C5.1015 57.6865 2.3135 54.8985 1.025 51.3585C0 48.116 0 45.105 0 39.0815V20.9185C0 14.8955 0 11.8835 1.025 8.6415C2.3135 5.1015 5.1015 2.3135 8.6415 1.025C11.8835 0 14.895 0 20.9185 0H39.0815Z" fill="white"/>
<path d="M49.1664 20.3716C48.7082 18.6535 47.3528 17.2981 45.6284 16.8336C42.5103 16 30 16 30 16C30 16 17.496 16 14.3716 16.8336C12.6535 17.2918 11.2981 18.6472 10.8336 20.3716C10 23.4897 10 29.9994 10 29.9994C10 29.9994 10 36.5091 10.8336 39.6271C11.2918 41.3452 12.6472 42.7006 14.3716 43.1651C17.496 43.9987 30 43.9987 30 43.9987C30 43.9987 42.5103 43.9987 45.6284 43.1651C47.3465 42.707 48.7019 41.3516 49.1664 39.6271C50 36.5091 50 29.9994 50 29.9994C50 29.9994 50 23.4897 49.1664 20.3716Z" fill="#FF0000"/>
<path d="M26.0033 36L36.3946 29.9994L26.0033 23.9987V36Z" fill="white"/>
</svg>
